<svg xmlns="http://www.w3.org/2000/svg" version="1.1" xmlns:xlink="http://www.w3.org/1999/xlink" xmlns:svgjs="http://svgjs.dev/svgjs" width="1500" height="1500" viewBox="0 0 1500 1500"><rect width="1500" height="1500" fill="#ffffff"></rect><g transform="matrix(0.6666666666666666,0,0,0.6666666666666666,251.2962355427373,24.25476931778894)"><svg viewBox="0 0 170 247" data-background-color="#ffffff" preserveAspectRatio="xMidYMid meet" height="2179" width="1500" xmlns="http://www.w3.org/2000/svg" xmlns:xlink="http://www.w3.org/1999/xlink"><g id="tight-bounds" transform="matrix(1,0,0,1,-0.22036004226532668,-0.0999963433872324)"><svg viewBox="0 0 170.44072008453068 247.2" height="247.2" width="170.44072008453068"><g><svg viewBox="0 0 170.44072008453068 247.2" height="247.2" width="170.44072008453068"><g><svg viewBox="0 0 170.44072008453068 247.2" height="247.2" width="170.44072008453068"><g id="textblocktransform"><svg viewBox="0 0 170.44072008453068 247.2" height="247.2" width="170.44072008453068" id="textblock"><g><svg viewBox="0 0 170.44072008453068 247.2" height="247.2" width="170.44072008453068"><g transform="matrix(1,0,0,1,0,0)"><svg width="170.44072008453068" viewBox="0.809090909090909 -36.5099989184 25.20757575757409 36.5599989184" height="247.2" data-palette-color="#1d597d"><path d="M14.05-2.1L14.05-2.1Q15.85-2.4 17.53-3.2 19.2-4 20.55-5.25L20.55-5.25Q20.65-5.3 20.95-5.6 21.25-5.9 21.35-5.8L21.35-5.8Q21.45-5.7 21.3-5.5 21.15-5.3 21.05-5.15L21.05-5.15Q20.05-3.7 18.43-2.78 16.8-1.85 15.05-1.3L15.05-1.3Q13.6-0.9 11.95-1.03 10.3-1.15 8.85-1.85L8.85-1.85Q8.4-2.05 8.3-2.18 8.2-2.3 8.3-2.35 8.4-2.4 8.63-2.4 8.85-2.4 9.05-2.35L9.05-2.35Q9.6-2.25 10.33-2.18 11.05-2.1 11.78-2.08 12.5-2.05 13.1-2.05 13.7-2.05 14.05-2.1ZM7.35-16.8L7.35-16.8Q7.1-15.05 7.1-13.38 7.1-11.7 7.33-10.23 7.55-8.75 8.03-7.6 8.5-6.45 9.2-5.7L9.2-5.7Q10-4.9 11.18-4.48 12.35-4.05 13.73-4.05 15.1-4.05 16.63-4.45 18.15-4.85 19.65-5.7L19.65-5.7Q19.95-5.9 20.05-5.8L20.05-5.8Q20.15-5.7 19.98-5.58 19.8-5.45 19.65-5.35L19.65-5.35Q18.35-4.35 16.9-3.75 15.45-3.15 13.98-3 12.5-2.85 11.13-3.18 9.75-3.5 8.65-4.4L8.65-4.4Q7.6-5.3 6.95-6.58 6.3-7.85 5.98-9.38 5.65-10.9 5.6-12.55 5.55-14.2 5.7-15.8L5.7-15.8Q5.9-18.35 6.7-20.95 7.5-23.55 8.83-25.75 10.15-27.95 12-29.6 13.85-31.25 16.15-31.9L16.15-31.9Q17.3-32.2 18.5-32.15 19.7-32.1 20.73-31.7 21.75-31.3 22.5-30.53 23.25-29.75 23.5-28.65L23.5-28.65Q23.75-27.45 23.3-26.33 22.85-25.2 22.05-24.38 21.25-23.55 20.25-23.2 19.25-22.85 18.35-23.2L18.35-23.2Q18.3-23.2 18.28-23.35 18.25-23.5 18.45-23.45L18.45-23.45Q19.05-23.35 19.83-23.73 20.6-24.1 21.23-24.75 21.85-25.4 22.23-26.3 22.6-27.2 22.45-28.15L22.45-28.15Q22.3-28.85 21.83-29.38 21.35-29.9 20.6-30.23 19.85-30.55 18.93-30.65 18-30.75 17-30.55L17-30.55Q15.1-30.2 13.48-28.88 11.85-27.55 10.6-25.65 9.35-23.75 8.5-21.43 7.65-19.1 7.35-16.8ZM11.3-0.25L11.3-0.25Q11.85-0.2 12.43-0.2 13-0.2 13-0.05L13-0.05Q13 0 12.8 0.03 12.6 0.05 12.38 0.05 12.15 0.05 11.9 0.05 11.65 0.05 11.6 0.05L11.6 0.05Q10.05 0.05 8.55-0.4 7.05-0.85 5.78-1.68 4.5-2.5 3.5-3.7 2.5-4.9 2-6.45L2-6.45Q1-9.5 0.85-12.4 0.7-15.3 1.1-18.1L1.1-18.1Q1.3-19.7 1.88-21.73 2.45-23.75 3.43-25.85 4.4-27.95 5.88-30 7.35-32.05 9.4-33.75L9.4-33.75Q11.55-35.55 14.18-36.15 16.8-36.75 19.2-36.35 21.6-35.95 23.45-34.68 25.3-33.4 25.9-31.45L25.9-31.45Q25.95-31.35 26-31.03 26.05-30.7 25.95-30.6L25.95-30.6Q25.9-30.55 25.8-30.85 25.7-31.15 25.6-31.25L25.6-31.25Q23.5-34.1 20.85-34.88 18.2-35.65 15.6-35.02 13-34.4 10.7-32.73 8.4-31.05 7.05-29L7.05-29Q4.7-25.45 3.48-21.45 2.25-17.45 2.35-13.2L2.35-13.2Q2.4-11.25 2.78-9.1 3.15-6.95 4.25-5L4.25-5Q5.35-3 7.28-1.68 9.2-0.35 11.3-0.25ZM4.1-19.05L4.1-19.05Q4.5-21.7 5.38-24.2 6.25-26.7 7.68-28.78 9.1-30.85 11.2-32.35 13.3-33.85 16.15-34.45L16.15-34.45Q17.15-34.65 18.4-34.63 19.65-34.6 20.9-34.18 22.15-33.75 23.23-32.9 24.3-32.05 25-30.55L25-30.55Q25.65-29.1 25.45-27.7 25.25-26.3 24.6-25.18 23.95-24.05 23-23.3 22.05-22.55 21.15-22.45L21.15-22.45Q20.6-22.35 20.55-22.48 20.5-22.6 21.1-22.8L21.1-22.8Q22.05-23.1 23.03-24.33 24-25.55 24.2-27.45L24.2-27.45Q24.3-28.4 23.95-29.33 23.6-30.25 22.95-30.95 22.3-31.65 21.4-32.15 20.5-32.65 19.5-32.8L19.5-32.8Q17.35-33.1 15.55-32.5 13.75-31.9 12.43-30.98 11.1-30.05 10.28-29.15 9.45-28.25 9.25-27.95L9.25-27.95Q7.7-26 6.55-23.73 5.4-21.45 4.65-18.95L4.65-18.95Q4.65-18.9 4.58-18.6 4.5-18.3 4.42-17.98 4.35-17.65 4.25-17.38 4.15-17.1 4.1-17.1L4.1-17.1Q4-17.1 4-17.4 4-17.7 4-18.03 4-18.35 4.05-18.65 4.1-18.95 4.1-19.05Z" opacity="1" transform="matrix(1,0,0,1,0,0)" fill="#000000" class="wordmark-text-0" data-fill-palette-color="primary" id="text-0"></path></svg></g></svg></g></svg></g></svg></g></svg></g><defs></defs></svg><rect width="170.44072008453068" height="247.2" fill="none" stroke="none" visibility="hidden"></rect></g></svg></g></svg>